<svg width="18" height="24" viewBox="0 0 18 24" fill="none" xmlns="http://www.w3.org/2000/svg">
<path fill-rule="evenodd" clip-rule="evenodd" d="M3.12455 0H11.1485L17.9491 7.08846V20.8756C17.9491 22.6027 16.5518 24 14.8307 24H3.12455C1.39742 24 0.000122071 22.6027 0.000122071 20.8756V3.12443C9.17469e-05 1.3973 1.39739 0 3.12455 0V0Z" fill="#E5252A"/>
<path opacity="0.302" fill-rule="evenodd" clip-rule="evenodd" d="M11.1427 0V7.03449H17.9493L11.1427 0Z" fill="white"/>
<path d="M3.47278 17.9072V13.5234H5.33785C5.79962 13.5234 6.16545 13.6494 6.44131 13.9072C6.71717 14.1591 6.85511 14.501 6.85511 14.9267C6.85511 15.3525 6.71717 15.6944 6.44131 15.9462C6.16545 16.2041 5.79962 16.33 5.33785 16.33H4.59422V17.9072H3.47278ZM4.59422 15.3765H5.21192C5.37982 15.3765 5.51176 15.3405 5.60173 15.2566C5.69167 15.1786 5.73967 15.0707 5.73967 14.9268C5.73967 14.7829 5.6917 14.6749 5.60173 14.5969C5.51179 14.513 5.37985 14.477 5.21192 14.477H4.59422V15.3765ZM7.31685 17.9072V13.5234H8.87007C9.17592 13.5234 9.46379 13.5654 9.73364 13.6554C10.0035 13.7453 10.2494 13.8713 10.4653 14.0452C10.6812 14.2131 10.8551 14.441 10.981 14.7288C11.1009 15.0167 11.1669 15.3465 11.1669 15.7183C11.1669 16.0842 11.101 16.414 10.981 16.7018C10.8551 16.9897 10.6812 17.2176 10.4653 17.3855C10.2494 17.5594 10.0035 17.6853 9.73364 17.7753C9.46379 17.8652 9.17592 17.9072 8.87007 17.9072H7.31685ZM8.41431 16.9537H8.73814C8.91204 16.9537 9.07397 16.9358 9.22389 16.8938C9.36781 16.8518 9.50576 16.7858 9.63769 16.6959C9.76363 16.6059 9.86558 16.48 9.93754 16.3121C10.0095 16.1442 10.0455 15.9462 10.0455 15.7183C10.0455 15.4845 10.0095 15.2866 9.93754 15.1187C9.86558 14.9508 9.76363 14.8248 9.63769 14.7348C9.50576 14.6449 9.36784 14.5789 9.22389 14.537C9.07397 14.495 8.91204 14.477 8.73814 14.477H8.41431V16.9537ZM11.7307 17.9072V13.5234H14.8491V14.477H12.8521V15.1786H14.4473V16.1261H12.8521V17.9072H11.7307Z" fill="white"/>
</svg>
