<svg width="40" height="36" viewBox="0 0 40 36" fill="none" xmlns="http://www.w3.org/2000/svg">
<path d="M15.1563 10.3438C15.1563 11.638 14.1071 12.6875 12.8125 12.6875C11.5183 12.6875 10.4688 11.638 10.4688 10.3438C10.4688 9.0492 11.5183 8 12.8125 8C14.1071 8 15.1563 9.0492 15.1563 10.3438ZM26.6867 14.3794L18.3981 22.668L21.0727 25.3425L23.7167 22.6985C24.6021 21.8132 25.7791 21.3255 27.0313 21.3255C28.2834 21.3255 29.4605 21.8132 30.3458 22.6985L33.9175 26.2703C34.5276 26.8803 34.5276 27.8697 33.9175 28.4797C33.3072 29.0901 32.3178 29.0901 31.7078 28.4797L28.1363 24.9083C27.8409 24.6132 27.4487 24.4505 27.0313 24.4505C26.6141 24.4505 26.2216 24.6132 25.9265 24.9083L22.1777 28.657C21.8726 28.9622 21.4728 29.1148 21.0727 29.1148C20.6729 29.1148 20.2731 28.9622 19.968 28.657L12.2348 20.9239C11.9397 20.6288 11.5472 20.4661 11.1301 20.4661C10.7126 20.4661 10.3201 20.6288 10.025 20.9239L3.125 27.8239V28.9375C3.125 30.6605 4.52698 32.0625 6.25 32.0625H33.75C35.473 32.0625 36.875 30.6605 36.875 28.9375C36.875 28.0745 37.5745 27.375 38.4375 27.375C39.3005 27.375 40 28.0745 40 28.9375C40 32.3839 37.1964 35.1875 33.75 35.1875H6.25C2.80365 35.1875 0 32.3839 0 28.9375V7.0625C0 3.61615 2.80365 0.8125 6.25 0.8125H33.75C37.1964 0.8125 40 3.61615 40 7.0625V21.7109C40 22.343 39.6194 22.9127 39.0353 23.1544C38.4515 23.3964 37.7795 23.2628 37.3328 22.816L28.8962 14.3794C28.6011 14.0843 28.2089 13.9219 27.7914 13.9219C27.3743 13.9219 26.9818 14.0843 26.6867 14.3794ZM24.4769 12.1696C25.3622 11.2843 26.5393 10.7969 27.7914 10.7969C29.0436 10.7969 30.2206 11.2843 31.106 12.1696L36.875 17.9387V7.0625C36.875 5.33948 35.473 3.9375 33.75 3.9375H6.25C4.52698 3.9375 3.125 5.33948 3.125 7.0625V23.4044L7.81525 18.7141C8.70056 17.8288 9.87763 17.3411 11.1298 17.3411C12.3819 17.3411 13.559 17.8288 14.4443 18.7141L16.1884 20.4582L24.4769 12.1696Z" fill="#C1C1C1"/>
</svg>
