<svg width="24" height="24" viewBox="0 0 24 24" fill="none" xmlns="http://www.w3.org/2000/svg">
<path d="M15.5 2H4V22H20V6.5L15.5 2Z" fill="#F8F8F9"/>
<path d="M15.502 6.5V2H12.002V22H20.002V6.5H15.502Z" fill="#EDEDED"/>
<path d="M20 11H4V19H20V11Z" fill="#95D5A7"/>
<path d="M20.002 11H12.002V19H20.002V11Z" fill="#80CB93"/>
<path d="M10.3711 16.4997V13.3047H11.7345C12.324 13.3047 12.7785 13.8497 12.7785 14.3847C12.7785 14.9997 12.3177 15.4692 11.757 15.4692H11.109V16.4997H10.3711ZM11.1091 14.8257H11.7121C11.9084 14.8257 12.0316 14.6341 12.0316 14.3848C12.0316 14.1279 11.8959 13.9528 11.6852 13.9528H11.1091V14.8257Z" fill="#F8F8F9"/>
<path d="M15.5967 16.1837C15.3537 16.4087 15.0731 16.5212 14.7552 16.5212C13.8761 16.5212 13.2207 15.7987 13.2207 14.8787C13.2207 13.9487 13.9605 13.2812 14.8137 13.2812C15.4423 13.2812 15.8682 13.5596 16.0917 13.9787L15.5427 14.3927C15.3698 14.08 15.0948 13.9382 14.7867 13.9382C14.3323 13.9382 13.9677 14.3425 13.9677 14.9057C13.9677 15.4425 14.3136 15.8643 14.8182 15.8643C15.1063 15.8643 15.3657 15.7307 15.5968 15.4637V15.3648H14.9757V14.8292H16.2087V16.4988H15.5968L15.5967 16.1837Z" fill="#F8F8F9"/>
<path d="M7.79867 15.7482C7.89445 15.8059 8.07887 15.8922 8.32969 15.8922C8.76008 15.8922 8.83367 15.6279 8.83367 14.9292V13.3047H9.57168V14.9292C9.57168 16.0622 9.33512 16.5492 8.32969 16.5492C8.05973 16.5492 7.82863 16.4832 7.63672 16.3511L7.79867 15.7482Z" fill="#F8F8F9"/>
</svg>
