<svg width="18" height="12" viewBox="0 0 18 12" fill="none" xmlns="http://www.w3.org/2000/svg">
<path fill-rule="evenodd" clip-rule="evenodd" d="M0 1C0 0.44772 0.44772 0 1 0H17C17.5523 0 18 0.44772 18 1C18 1.55228 17.5523 2 17 2H1C0.44772 2 0 1.55228 0 1ZM3 6C3 5.4477 3.44772 5 4 5H14C14.5523 5 15 5.4477 15 6C15 6.5523 14.5523 7 14 7H4C3.44772 7 3 6.5523 3 6ZM6 11C6 10.4477 6.44772 10 7 10H11C11.5523 10 12 10.4477 12 11C12 11.5523 11.5523 12 11 12H7C6.44772 12 6 11.5523 6 11Z" fill="#828282"/>
</svg>
