<svg width="17" height="20" viewBox="0 0 17 20" fill="none" xmlns="http://www.w3.org/2000/svg">
<path d="M11.5 0H0V20H16V4.5L11.5 0Z" fill="#F8F8F9"/>
<path d="M11.502 4.5V0H8.00195V20H16.002V4.5H11.502Z" fill="#EDEDED"/>
<path d="M16 9H0V17H16V9Z" fill="#95D5A7"/>
<path d="M16.002 9H8.00195V17H16.002V9Z" fill="#80CB93"/>
<path d="M6.37109 14.4997V11.3047H7.73453C8.32398 11.3047 8.77852 11.8497 8.77852 12.3847C8.77852 12.9997 8.31773 13.4692 7.75703 13.4692H7.10902V14.4997H6.37109ZM7.1091 12.8257H7.71215C7.90844 12.8257 8.03164 12.6341 8.03164 12.3848C8.03164 12.1279 7.89594 11.9528 7.68516 11.9528H7.1091V12.8257Z" fill="#F8F8F9"/>
<path d="M11.5967 14.1837C11.3537 14.4087 11.0731 14.5212 10.7552 14.5212C9.87605 14.5212 9.2207 13.7987 9.2207 12.8787C9.2207 11.9487 9.96047 11.2812 10.8137 11.2812C11.4423 11.2812 11.8682 11.5596 12.0917 11.9787L11.5427 12.3927C11.3698 12.08 11.0948 11.9382 10.7867 11.9382C10.3323 11.9382 9.96773 12.3425 9.96773 12.9057C9.96773 13.4425 10.3136 13.8643 10.8182 13.8643C11.1063 13.8643 11.3657 13.7307 11.5968 13.4637V13.3648H10.9757V12.8292H12.2087V14.4988H11.5968L11.5967 14.1837Z" fill="#F8F8F9"/>
<path d="M3.79867 13.7482C3.89445 13.8059 4.07887 13.8922 4.32969 13.8922C4.76008 13.8922 4.83367 13.6279 4.83367 12.9292V11.3047H5.57168V12.9292C5.57168 14.0622 5.33512 14.5492 4.32969 14.5492C4.05973 14.5492 3.82863 14.4832 3.63672 14.3511L3.79867 13.7482Z" fill="#F8F8F9"/>
</svg>
