<svg width="20" height="20" viewBox="0 0 20 20" fill="none" xmlns="http://www.w3.org/2000/svg">
<path d="M18.3333 18.3327L16.6666 16.666M9.58329 17.4993C10.6229 17.4993 11.6524 17.2946 12.6129 16.8967C13.5734 16.4989 14.4461 15.9157 15.1812 15.1806C15.9164 14.4455 16.4995 13.5728 16.8973 12.6123C17.2952 11.6518 17.5 10.6223 17.5 9.58268C17.5 8.54305 17.2952 7.5136 16.8973 6.55311C16.4995 5.59261 15.9164 4.71988 15.1812 3.98475C14.4461 3.24962 13.5734 2.66649 12.6129 2.26864C11.6524 1.87079 10.6229 1.66602 9.58329 1.66602C7.48366 1.66602 5.47003 2.50009 3.98536 3.98475C2.5007 5.46942 1.66663 7.48305 1.66663 9.58268C1.66663 11.6823 2.5007 13.6959 3.98536 15.1806C5.47003 16.6653 7.48366 17.4993 9.58329 17.4993Z" stroke="#B1B1B1" stroke-width="1.5" stroke-linecap="round" stroke-linejoin="round"/>
</svg>
