<svg width="24" height="24" viewBox="0 0 24 24" fill="none" xmlns="http://www.w3.org/2000/svg">
<path d="M17.625 3C18.5547 3 19.3496 3.33008 20.0098 3.99023C20.6699 4.65039 21 5.44531 21 6.375V17.625C21 18.5547 20.6699 19.3496 20.0098 20.0098C19.3496 20.6699 18.5547 21 17.625 21H15.4219V14.0273H17.7539L18.1055 11.3086H15.4219V9.57422C15.4219 9.13672 15.5137 8.80859 15.6973 8.58984C15.8809 8.37109 16.2383 8.26172 16.7695 8.26172L18.1992 8.25V5.82422C17.707 5.75391 17.0117 5.71875 16.1133 5.71875C15.0508 5.71875 14.2012 6.03125 13.5645 6.65625C12.9277 7.28125 12.6094 8.16406 12.6094 9.30469V11.3086H10.2656V14.0273H12.6094V21H6.375C5.44531 21 4.65039 20.6699 3.99023 20.0098C3.33008 19.3496 3 18.5547 3 17.625V6.375C3 5.44531 3.33008 4.65039 3.99023 3.99023C4.65039 3.33008 5.44531 3 6.375 3H17.625Z" fill="white"/>
</svg>
