<svg width="24" height="24" viewBox="0 0 24 24" fill="none" xmlns="http://www.w3.org/2000/svg">
<path d="M18.7267 21H5.24353C4.62321 21 4.0936 20.7803 3.65469 20.3408C3.21579 19.9014 2.99634 19.3711 2.99634 18.75V5.25C2.99634 4.62891 3.21579 4.09863 3.65469 3.65918C4.0936 3.21973 4.62321 3 5.24353 3H18.7267C19.347 3 19.8766 3.21973 20.3155 3.65918C20.7544 4.09863 20.9739 4.62891 20.9739 5.25V18.75C20.9739 19.3711 20.7544 19.9014 20.3155 20.3408C19.8766 20.7803 19.347 21 18.7267 21ZM17.2695 7.5C17.1993 7.53516 17.094 7.60254 16.9535 7.70215C16.8131 7.80176 16.6989 7.87793 16.6112 7.93066C16.5234 7.9834 16.4151 8.03906 16.2864 8.09766C16.1576 8.15625 16.0347 8.19727 15.9177 8.2207C15.4846 7.74023 14.9521 7.5 14.3201 7.5C12.9507 7.5 12.266 8.07422 12.266 9.22266V10.2773C10.3816 10.1719 8.93618 9.47461 7.92962 8.18555C7.63702 8.49023 7.49072 8.82422 7.49072 9.1875C7.49072 9.96094 7.77747 10.5469 8.35097 10.9453C8.26904 10.9453 8.16663 10.9512 8.04374 10.9629C7.92085 10.9746 7.82136 10.9746 7.74528 10.9629C7.66921 10.9512 7.58435 10.9219 7.49072 10.875C7.49072 11.4141 7.6341 11.8623 7.92085 12.2197C8.2076 12.5771 8.60261 12.8086 9.10589 12.9141C8.98885 13.0547 8.82499 13.125 8.61432 13.125C8.42705 13.125 8.26319 13.0723 8.12274 12.9668C8.12274 13.4238 8.34219 13.7783 8.7811 14.0303C9.22 14.2822 9.7145 14.4141 10.2646 14.4258C10.0539 14.7422 9.74669 14.9795 9.3429 15.1377C8.9391 15.2959 8.50898 15.375 8.05252 15.375C7.88866 15.375 7.66336 15.334 7.3766 15.252C7.08985 15.1699 6.94063 15.1289 6.92892 15.1289C7.11619 15.5039 7.4995 15.8262 8.07885 16.0957C8.65821 16.3652 9.39264 16.5 10.2822 16.5C11.0663 16.5 11.7978 16.3623 12.4767 16.0869C13.1555 15.8115 13.7349 15.4453 14.2147 14.9883C14.6946 14.5313 15.1072 14.0098 15.4524 13.4238C15.7977 12.8379 16.0552 12.2314 16.2249 11.6045C16.3946 10.9775 16.4795 10.3594 16.4795 9.75C16.4795 9.72656 16.5497 9.67676 16.6902 9.60059C16.8306 9.52441 16.9945 9.42481 17.1817 9.30176C17.369 9.17871 17.5094 9.04102 17.6031 8.88867C16.9711 8.88867 16.5497 8.90039 16.339 8.92383C16.7487 8.67773 17.0588 8.20313 17.2695 7.5Z" fill="white"/>
</svg>
